<svg width="28" height="28" viewBox="0 0 28 28" fill="none" xmlns="http://www.w3.org/2000/svg">
<g id="ep:right">
<path id="Vector" d="M20.6378 13.1251H4.375C4.14294 13.1251 3.92038 13.2173 3.75628 13.3814C3.59219 13.5455 3.5 13.7681 3.5 14.0001C3.5 14.2322 3.59219 14.4548 3.75628 14.6188C3.92038 14.7829 4.14294 14.8751 4.375 14.8751H20.6378L14.2555 21.2556C14.0912 21.4199 13.9989 21.6428 13.9989 21.8751C13.9989 22.1075 14.0912 22.3303 14.2555 22.4946C14.4198 22.6589 14.6426 22.7512 14.875 22.7512C15.1074 22.7512 15.3302 22.6589 15.4945 22.4946L23.3695 14.6196C23.451 14.5383 23.5156 14.4418 23.5597 14.3355C23.6039 14.2292 23.6266 14.1152 23.6266 14.0001C23.6266 13.885 23.6039 13.7711 23.5597 13.6648C23.5156 13.5585 23.451 13.4619 23.3695 13.3806L15.4945 5.50563C15.3302 5.34133 15.1074 5.24902 14.875 5.24902C14.6426 5.24902 14.4198 5.34133 14.2555 5.50563C14.0912 5.66993 13.9989 5.89277 13.9989 6.12513C13.9989 6.35749 14.0912 6.58033 14.2555 6.74463L20.6378 13.1251Z" fill="black"/>
</g>
</svg>
